<?xml version="1.0" encoding="UTF-8"?>
<svg xmlns="http://www.w3.org/2000/svg" width="2081" height="2013" viewBox="0 0 2081 2013">
  <g fill="#000000">
    <path d="M 1156.0 2006.0 L 972.0 2006.0 L 820.0 1974.0 L 786.0 1888.0 L 854.0 1772.0 L 906.0 1640.0 L 980.0 1538.0 L 946.0 1464.0 L 966.0 1300.0 L 982.0 1132.0 L 986.0 952.0 L 986.0 768.0 L 974.0 596.0 L 920.0 466.0 L 812.0 390.0 L 656.0 402.0 L 540.0 470.0 L 438.0 552.0 L 426.0 652.0 L 482.0 780.0 L 538.0 908.0 L 594.0 1036.0 L 650.0 1164.0 L 706.0 1292.0 L 762.0 1420.0 L 668.0 1510.0 L 550.0 1576.0 L 396.0 1606.0 L 232.0 1586.0 L 110.0 1524.0 L 132.0 1474.0 L 204.0 1454.0 L 24.0 1450.0 L 38.0 1324.0 L 94.0 1196.0 L 150.0 1068.0 L 206.0 940.0 L 262.0 812.0 L 318.0 684.0 L 356.0 566.0 L 282.0 456.0 L 314.0 460.0 L 432.0 478.0 L 526.0 388.0 L 632.0 310.0 L 776.0 270.0 L 938.0 292.0 L 986.0 184.0 L 1018.0 80.0 L 1054.0 72.0 L 1094.0 176.0 L 1136.0 294.0 L 1296.0 270.0 L 1440.0 310.0 L 1548.0 386.0 L 1640.0 478.0 L 1762.0 464.0 L 1794.0 452.0 L 1724.0 566.0 L 1760.0 686.0 L 1816.0 814.0 L 1872.0 942.0 L 1930.0 1068.0 L 1986.0 1196.0 L 2042.0 1324.0 L 2050.0 1452.0 L 1868.0 1454.0 L 1940.0 1474.0 L 1970.0 1524.0 L 1846.0 1584.0 L 1684.0 1606.0 L 1528.0 1578.0 L 1410.0 1512.0 L 1316.0 1422.0 L 1370.0 1296.0 L 1426.0 1168.0 L 1482.0 1040.0 L 1538.0 912.0 L 1594.0 784.0 L 1650.0 656.0 L 1640.0 554.0 L 1538.0 472.0 L 1424.0 402.0 L 1268.0 390.0 L 1158.0 464.0 L 1102.0 592.0 L 1094.0 768.0 L 1090.0 948.0 L 1094.0 1128.0 L 1110.0 1296.0 L 1132.0 1458.0 L 1166.0 1608.0 L 1064.0 1690.0 L 1104.0 1710.0 L 1202.0 1724.0 L 1186.0 1828.0 L 1032.0 1858.0 L 1000.0 1878.0 L 1168.0 1870.0 L 1282.0 1876.0 L 1276.0 1966.0 Z"/>
    <path d="M 730.0 1404.0 L 732.0 1390.0 L 726.0 1376.0 L 720.0 1362.0 L 714.0 1348.0 L 706.0 1336.0 L 702.0 1320.0 L 694.0 1308.0 L 690.0 1292.0 L 682.0 1280.0 L 678.0 1264.0 L 670.0 1252.0 L 666.0 1236.0 L 658.0 1224.0 L 652.0 1210.0 L 646.0 1196.0 L 640.0 1182.0 L 634.0 1168.0 L 628.0 1154.0 L 622.0 1140.0 L 616.0 1126.0 L 610.0 1112.0 L 604.0 1098.0 L 598.0 1084.0 L 592.0 1070.0 L 586.0 1056.0 L 580.0 1042.0 L 574.0 1028.0 L 566.0 1016.0 L 562.0 1000.0 L 554.0 988.0 L 550.0 972.0 L 542.0 960.0 L 538.0 944.0 L 530.0 932.0 L 524.0 918.0 L 518.0 904.0 L 512.0 890.0 L 506.0 876.0 L 500.0 862.0 L 494.0 848.0 L 488.0 834.0 L 482.0 820.0 L 476.0 806.0 L 470.0 792.0 L 464.0 778.0 L 458.0 764.0 L 452.0 750.0 L 446.0 736.0 L 438.0 724.0 L 432.0 710.0 L 426.0 696.0 L 420.0 682.0 L 414.0 668.0 L 408.0 654.0 L 402.0 640.0 L 396.0 626.0 L 386.0 628.0 L 386.0 648.0 L 386.0 668.0 L 386.0 688.0 L 386.0 708.0 L 386.0 728.0 L 386.0 748.0 L 386.0 768.0 L 386.0 788.0 L 386.0 808.0 L 386.0 828.0 L 386.0 848.0 L 386.0 868.0 L 386.0 888.0 L 386.0 908.0 L 386.0 928.0 L 386.0 948.0 L 386.0 968.0 L 386.0 988.0 L 386.0 1008.0 L 386.0 1028.0 L 386.0 1048.0 L 386.0 1068.0 L 386.0 1088.0 L 386.0 1108.0 L 386.0 1128.0 L 386.0 1148.0 L 386.0 1168.0 L 386.0 1188.0 L 386.0 1208.0 L 386.0 1228.0 L 386.0 1248.0 L 386.0 1268.0 L 386.0 1288.0 L 386.0 1308.0 L 386.0 1328.0 L 386.0 1348.0 L 386.0 1368.0 L 386.0 1388.0 L 390.0 1404.0 L 408.0 1406.0 L 428.0 1406.0 L 448.0 1406.0 L 468.0 1406.0 L 488.0 1406.0 L 508.0 1406.0 L 528.0 1406.0 L 548.0 1406.0 L 568.0 1406.0 L 588.0 1406.0 L 608.0 1406.0 L 628.0 1406.0 L 648.0 1406.0 L 668.0 1406.0 L 688.0 1406.0 L 708.0 1406.0 L 728.0 1406.0 Z"/>
    <path d="M 2050.0 1404.0 L 2052.0 1390.0 L 2046.0 1376.0 L 2038.0 1364.0 L 2034.0 1348.0 L 2026.0 1336.0 L 2020.0 1322.0 L 2014.0 1308.0 L 2008.0 1294.0 L 2002.0 1280.0 L 1996.0 1266.0 L 1990.0 1252.0 L 1984.0 1238.0 L 1978.0 1224.0 L 1972.0 1210.0 L 1966.0 1196.0 L 1960.0 1182.0 L 1954.0 1168.0 L 1948.0 1154.0 L 1942.0 1140.0 L 1936.0 1126.0 L 1930.0 1112.0 L 1924.0 1098.0 L 1918.0 1084.0 L 1910.0 1072.0 L 1906.0 1056.0 L 1898.0 1044.0 L 1894.0 1028.0 L 1886.0 1016.0 L 1882.0 1000.0 L 1874.0 988.0 L 1868.0 974.0 L 1862.0 960.0 L 1856.0 946.0 L 1850.0 932.0 L 1844.0 918.0 L 1838.0 904.0 L 1832.0 890.0 L 1826.0 876.0 L 1820.0 862.0 L 1814.0 848.0 L 1808.0 834.0 L 1802.0 820.0 L 1794.0 808.0 L 1790.0 792.0 L 1782.0 780.0 L 1778.0 764.0 L 1770.0 752.0 L 1764.0 738.0 L 1758.0 724.0 L 1752.0 710.0 L 1746.0 696.0 L 1740.0 682.0 L 1734.0 668.0 L 1728.0 654.0 L 1722.0 640.0 L 1716.0 626.0 L 1706.0 628.0 L 1706.0 648.0 L 1706.0 668.0 L 1706.0 688.0 L 1706.0 708.0 L 1706.0 728.0 L 1706.0 748.0 L 1706.0 768.0 L 1706.0 788.0 L 1706.0 808.0 L 1706.0 828.0 L 1706.0 848.0 L 1706.0 868.0 L 1706.0 888.0 L 1706.0 908.0 L 1706.0 928.0 L 1706.0 948.0 L 1706.0 968.0 L 1706.0 988.0 L 1706.0 1008.0 L 1706.0 1028.0 L 1706.0 1048.0 L 1706.0 1068.0 L 1706.0 1088.0 L 1706.0 1108.0 L 1706.0 1128.0 L 1706.0 1148.0 L 1706.0 1168.0 L 1706.0 1188.0 L 1706.0 1208.0 L 1706.0 1228.0 L 1706.0 1248.0 L 1706.0 1268.0 L 1706.0 1288.0 L 1706.0 1308.0 L 1706.0 1328.0 L 1706.0 1348.0 L 1706.0 1368.0 L 1706.0 1388.0 L 1710.0 1404.0 L 1728.0 1406.0 L 1748.0 1406.0 L 1768.0 1406.0 L 1788.0 1406.0 L 1808.0 1406.0 L 1828.0 1406.0 L 1848.0 1406.0 L 1868.0 1406.0 L 1888.0 1406.0 L 1908.0 1406.0 L 1928.0 1406.0 L 1948.0 1406.0 L 1968.0 1406.0 L 1988.0 1406.0 L 2008.0 1406.0 L 2028.0 1406.0 L 2048.0 1406.0 Z"/>
    <path d="M 366.0 1404.0 L 370.0 1388.0 L 370.0 1368.0 L 370.0 1348.0 L 370.0 1328.0 L 370.0 1308.0 L 370.0 1288.0 L 370.0 1268.0 L 370.0 1248.0 L 370.0 1228.0 L 370.0 1208.0 L 370.0 1188.0 L 370.0 1168.0 L 370.0 1148.0 L 370.0 1128.0 L 370.0 1108.0 L 370.0 1088.0 L 370.0 1068.0 L 370.0 1048.0 L 370.0 1028.0 L 370.0 1008.0 L 370.0 988.0 L 370.0 968.0 L 370.0 948.0 L 370.0 928.0 L 370.0 908.0 L 370.0 888.0 L 370.0 868.0 L 370.0 848.0 L 370.0 828.0 L 370.0 808.0 L 370.0 788.0 L 370.0 768.0 L 370.0 748.0 L 370.0 728.0 L 370.0 708.0 L 370.0 688.0 L 370.0 668.0 L 370.0 648.0 L 368.0 630.0 L 358.0 632.0 L 352.0 646.0 L 346.0 660.0 L 340.0 674.0 L 334.0 688.0 L 328.0 702.0 L 322.0 716.0 L 316.0 730.0 L 310.0 744.0 L 304.0 758.0 L 298.0 772.0 L 292.0 786.0 L 286.0 800.0 L 280.0 814.0 L 274.0 828.0 L 266.0 840.0 L 262.0 856.0 L 254.0 868.0 L 250.0 884.0 L 242.0 896.0 L 236.0 910.0 L 230.0 924.0 L 224.0 938.0 L 218.0 952.0 L 212.0 966.0 L 206.0 980.0 L 200.0 994.0 L 194.0 1008.0 L 188.0 1022.0 L 182.0 1036.0 L 176.0 1050.0 L 170.0 1064.0 L 164.0 1078.0 L 158.0 1092.0 L 150.0 1104.0 L 146.0 1120.0 L 138.0 1132.0 L 134.0 1148.0 L 126.0 1160.0 L 122.0 1176.0 L 114.0 1188.0 L 108.0 1202.0 L 102.0 1216.0 L 96.0 1230.0 L 90.0 1244.0 L 84.0 1258.0 L 78.0 1272.0 L 72.0 1286.0 L 66.0 1300.0 L 60.0 1314.0 L 54.0 1328.0 L 48.0 1342.0 L 42.0 1356.0 L 36.0 1370.0 L 30.0 1384.0 L 24.0 1398.0 L 32.0 1406.0 L 52.0 1406.0 L 72.0 1406.0 L 92.0 1406.0 L 112.0 1406.0 L 132.0 1406.0 L 152.0 1406.0 L 172.0 1406.0 L 192.0 1406.0 L 212.0 1406.0 L 232.0 1406.0 L 252.0 1406.0 L 272.0 1406.0 L 292.0 1406.0 L 312.0 1406.0 L 332.0 1406.0 L 352.0 1406.0 Z"/>
    <path d="M 1686.0 1404.0 L 1690.0 1388.0 L 1690.0 1368.0 L 1690.0 1348.0 L 1690.0 1328.0 L 1690.0 1308.0 L 1690.0 1288.0 L 1690.0 1268.0 L 1690.0 1248.0 L 1690.0 1228.0 L 1690.0 1208.0 L 1690.0 1188.0 L 1690.0 1168.0 L 1690.0 1148.0 L 1690.0 1128.0 L 1690.0 1108.0 L 1690.0 1088.0 L 1690.0 1068.0 L 1690.0 1048.0 L 1690.0 1028.0 L 1690.0 1008.0 L 1690.0 988.0 L 1690.0 968.0 L 1690.0 948.0 L 1690.0 928.0 L 1690.0 908.0 L 1690.0 888.0 L 1690.0 868.0 L 1690.0 848.0 L 1690.0 828.0 L 1690.0 808.0 L 1690.0 788.0 L 1690.0 768.0 L 1690.0 748.0 L 1690.0 728.0 L 1690.0 708.0 L 1690.0 688.0 L 1690.0 668.0 L 1690.0 648.0 L 1688.0 630.0 L 1678.0 632.0 L 1672.0 646.0 L 1666.0 660.0 L 1660.0 674.0 L 1654.0 688.0 L 1648.0 702.0 L 1642.0 716.0 L 1636.0 730.0 L 1630.0 744.0 L 1622.0 756.0 L 1618.0 772.0 L 1610.0 784.0 L 1606.0 800.0 L 1598.0 812.0 L 1592.0 826.0 L 1586.0 840.0 L 1580.0 854.0 L 1574.0 868.0 L 1568.0 882.0 L 1562.0 896.0 L 1556.0 910.0 L 1550.0 924.0 L 1544.0 938.0 L 1538.0 952.0 L 1532.0 966.0 L 1526.0 980.0 L 1520.0 994.0 L 1514.0 1008.0 L 1506.0 1020.0 L 1502.0 1036.0 L 1494.0 1048.0 L 1490.0 1064.0 L 1482.0 1076.0 L 1478.0 1092.0 L 1470.0 1104.0 L 1464.0 1118.0 L 1458.0 1132.0 L 1452.0 1146.0 L 1446.0 1160.0 L 1440.0 1174.0 L 1434.0 1188.0 L 1428.0 1202.0 L 1422.0 1216.0 L 1416.0 1230.0 L 1410.0 1244.0 L 1404.0 1258.0 L 1398.0 1272.0 L 1392.0 1286.0 L 1386.0 1300.0 L 1378.0 1312.0 L 1374.0 1328.0 L 1366.0 1340.0 L 1362.0 1356.0 L 1354.0 1368.0 L 1350.0 1384.0 L 1342.0 1396.0 L 1352.0 1406.0 L 1372.0 1406.0 L 1392.0 1406.0 L 1412.0 1406.0 L 1432.0 1406.0 L 1452.0 1406.0 L 1472.0 1406.0 L 1492.0 1406.0 L 1512.0 1406.0 L 1532.0 1406.0 L 1552.0 1406.0 L 1572.0 1406.0 L 1592.0 1406.0 L 1612.0 1406.0 L 1632.0 1406.0 L 1652.0 1406.0 L 1672.0 1406.0 Z"/>
  </g>
</svg>